<svg width="1464" height="1294" viewBox="0 0 1464 1294" fill="none" xmlns="http://www.w3.org/2000/svg">
<path d="M732 618.75C670.811 618.75 610.997 600.606 560.12 566.611C509.244 532.616 469.591 484.299 446.175 427.768C422.759 371.237 416.632 309.032 428.57 249.019C440.507 189.006 469.972 133.881 513.239 90.6139C556.506 47.347 611.631 17.8819 671.644 5.94457C731.657 -5.99273 793.862 0.133926 850.393 23.5498C906.924 46.9657 955.241 86.619 989.236 137.495C1023.23 188.372 1041.37 248.186 1041.37 309.375C1041.28 391.398 1008.66 470.035 950.658 528.033C892.659 586.032 814.023 618.657 732 618.75ZM1153.87 675C1092.69 675 1032.87 693.145 981.995 727.139C931.119 761.134 891.466 809.452 868.05 865.982C844.634 922.513 838.507 984.718 850.445 1044.73C862.382 1104.74 891.847 1159.87 935.114 1203.14C978.381 1246.4 1033.51 1275.87 1093.52 1287.81C1153.53 1299.74 1215.74 1293.62 1272.27 1270.2C1328.8 1246.78 1377.12 1207.13 1411.11 1156.25C1445.11 1105.38 1463.25 1045.56 1463.25 984.375C1463.16 902.352 1430.53 823.716 1372.53 765.717C1314.53 707.718 1235.9 675.093 1153.87 675ZM310.125 675C248.936 675 189.122 693.145 138.245 727.139C87.369 761.134 47.7156 809.452 24.2998 865.982C0.883926 922.513 -5.24273 984.718 6.69457 1044.73C18.6319 1104.74 48.097 1159.87 91.3639 1203.14C134.631 1246.4 189.756 1275.87 249.769 1287.81C309.782 1299.74 371.987 1293.62 428.518 1270.2C485.049 1246.78 533.366 1207.13 567.361 1156.25C601.356 1105.38 619.5 1045.56 619.5 984.375C619.407 902.352 586.782 823.716 528.783 765.717C470.785 707.718 392.148 675.093 310.125 675Z" fill="white"/>
</svg>
